HIERARCHY
ROOT Hip
{
	OFFSET 0 1.131 0.0052
	CHANNELS 6 Xposition Yposition Zposition Xrotation Yrotation Zrotation
	JOINT Abdomen
	{
		OFFSET 0 -0.047353 -0.05
		CHANNELS 3 Xrotation Zrotation Yrotation
		JOINT Chest
		{
			OFFSET 0 0.132153 0.007439
			CHANNELS 3 Xrotation Zrotation Yrotation
			JOINT Neck
			{
				OFFSET 0 0.3078 0.006161
				CHANNELS 3 Xrotation Zrotation Yrotation
				JOINT Head_comp
				{
					OFFSET 0 0.0884 0.013
					CHANNELS 3 Xrotation Yrotation Zrotation
					End Site
					{
						OFFSET -0 0.156 0.0624
					}
				}
			}
			JOINT Left_Collar
			{
				OFFSET 0.02282 0.250342 0.017193
				CHANNELS 2 Yrotation Zrotation
				JOINT Left_Shoulder
				{
					OFFSET 0.15421 0 0
					CHANNELS 3 Xrotation Yrotation Zrotation
					JOINT Left_Forearm
					{
						OFFSET 0.265212 0 0
						CHANNELS 2 Yrotation Xrotation
						JOINT Left_Hand
						{
							OFFSET 0.27571 0 0
							CHANNELS 2 Zrotation Yrotation
							JOINT L1ProxPhalanx
							{
								OFFSET 0.014142 0.001733 0.014142
								CHANNELS 3 Yrotation Zrotation Xrotation
								JOINT L1MidPhalanx
								{
									OFFSET 0.04 0 0
									CHANNELS 1 Zrotation
									JOINT L1DistPhalanx
									{
										OFFSET 0.035 0 0
										CHANNELS 1 Zrotation
										End Site
										{
											OFFSET 0.029 -0 -0
										}
									}
								}
							}
							JOINT L2ProxPhalanx
							{
								OFFSET 0.0821037 0.001578 0.0219996
								CHANNELS 2 Yrotation Zrotation
								JOINT L2MidPhalanx
								{
									OFFSET 0.04 0 0
									CHANNELS 1 Zrotation
									JOINT L2DistPhalanx
									{
										OFFSET 0.028 0 0
										CHANNELS 1 Zrotation
										End Site
										{
											OFFSET 0.02 -0 -0
										}
									}
								}
							}
							JOINT L3ProxPhalanx
							{
								OFFSET 0.083 0 0
								CHANNELS 2 Yrotation Zrotation
								JOINT L3MidPhalanx
								{
									OFFSET 0.053 0 0
									CHANNELS 1 Zrotation
									JOINT L3DistPhalanx
									{
										OFFSET 0.03 0 0
										CHANNELS 1 Zrotation
										End Site
										{
											OFFSET 0.023 -0 -0
										}
									}
								}
							}
							JOINT L4ProxPhalanx
							{
								OFFSET 0.077274 -0.000761 -0.0207055
								CHANNELS 2 Yrotation Zrotation
								JOINT L4MidPhalanx
								{
									OFFSET 0.05 0 0
									CHANNELS 1 Zrotation
									JOINT L4DistPhalanx
									{
										OFFSET 0.03 0 0
										CHANNELS 1 Zrotation
										End Site
										{
											OFFSET 0.023 -0 -0
										}
									}
								}
							}
							JOINT L5ProxPhalanx
							{
								OFFSET 0.0675499 -0.001644 -0.039
								CHANNELS 2 Yrotation Zrotation
								JOINT L5MidPhalanx
								{
									OFFSET 0.04 0 0
									CHANNELS 1 Zrotation
									JOINT L5DistPhalanx
									{
										OFFSET 0.021 0 0
										CHANNELS 1 Zrotation
										End Site
										{
											OFFSET 0.022 -0 -0
										}
									}
								}
							}
						}
					}
				}
			}
			JOINT Right_Collar
			{
				OFFSET -0.02282 0.250342 0.017193
				CHANNELS 2 Yrotation Zrotation
				JOINT Right_Shoulder
				{
					OFFSET -0.15421 0 0
					CHANNELS 3 Xrotation Yrotation Zrotation
					JOINT Right_Forearm
					{
						OFFSET -0.265212 0 0
						CHANNELS 2 Yrotation Xrotation
						JOINT Right_Hand
						{
							OFFSET -0.27571 3e-006 0
							CHANNELS 2 Zrotation Yrotation
							JOINT R1ProxPhalanx
							{
								OFFSET -0.014142 0.001733 0.014142
								CHANNELS 3 Yrotation Zrotation Xrotation
								JOINT R1MidPhalanx
								{
									OFFSET -0.04 0 0
									CHANNELS 1 Zrotation
									JOINT R1DistPhalanx
									{
										OFFSET -0.035 0 0
										CHANNELS 1 Zrotation
										End Site
										{
											OFFSET -0.029 -0 -0
										}
									}
								}
							}
							JOINT R2ProxPhalanx
							{
								OFFSET -0.0821037 0.001578 0.0219996
								CHANNELS 2 Yrotation Zrotation
								JOINT R2MidPhalanx
								{
									OFFSET -0.04 0 0
									CHANNELS 1 Zrotation
									JOINT R2DistPhalanx
									{
										OFFSET -0.028 0 0
										CHANNELS 1 Zrotation
										End Site
										{
											OFFSET -0.02 -0 -0
										}
									}
								}
							}
							JOINT R3ProxPhalanx
							{
								OFFSET -0.083 0 0
								CHANNELS 2 Yrotation Zrotation
								JOINT R3MidPhalanx
								{
									OFFSET -0.053 0 0
									CHANNELS 1 Zrotation
									JOINT R3DistPhalanx
									{
										OFFSET -0.03 0 0
										CHANNELS 1 Zrotation
										End Site
										{
											OFFSET -0.023 -0 -0
										}
									}
								}
							}
							JOINT R4ProxPhalanx
							{
								OFFSET -0.077274 -0.000761 -0.0207055
								CHANNELS 2 Yrotation Zrotation
								JOINT R4MidPhalanx
								{
									OFFSET -0.05 0 0
									CHANNELS 1 Zrotation
									JOINT R4DistPhalanx
									{
										OFFSET -0.03 0 0
										CHANNELS 1 Zrotation
										End Site
										{
											OFFSET -0.023 -0 -0
										}
									}
								}
							}
							JOINT R5ProxPhalanx
							{
								OFFSET -0.0675499 -0.001644 -0.039
								CHANNELS 2 Yrotation Zrotation
								JOINT R5MidPhalanx
								{
									OFFSET -0.04 0 0
									CHANNELS 1 Zrotation
									JOINT R5DistPhalanx
									{
										OFFSET -0.021 0 0
										CHANNELS 1 Zrotation
										End Site
										{
											OFFSET -0.022 -0 -0
										}
									}
								}
							}
						}
					}
				}
			}
		}
	}
	JOINT Left_Thigh
	{
		OFFSET 0.1118 -0.1612 -0.0442
		CHANNELS 3 Xrotation Zrotation Yrotation
		JOINT Left_Shin
		{
			OFFSET 0 -0.477856 0
			CHANNELS 1 Xrotation
			JOINT Left_Foot
			{
				OFFSET 0 -0.431952 0
				CHANNELS 2 Xrotation Zrotation
				JOINT Left_Toe
				{
					OFFSET 0 -0.0442 0.119
					CHANNELS 1 Xrotation
					End Site
					{
						OFFSET -0 -0 0.07
					}
				}
			}
		}
	}
	JOINT Right_Thigh
	{
		OFFSET -0.1118 -0.1612 -0.0442
		CHANNELS 3 Xrotation Zrotation Yrotation
		JOINT Right_Shin
		{
			OFFSET 0 -0.477856 0
			CHANNELS 1 Xrotation
			JOINT Right_Foot
			{
				OFFSET 0 -0.431952 0
				CHANNELS 2 Xrotation Zrotation
				JOINT Right_Toe
				{
					OFFSET 0 -0.0442 0.119
					CHANNELS 1 Xrotation
					End Site
					{
						OFFSET -0 -0 0.07
					}
				}
			}
		}
	}
}
MOTION
Frames: 5
Frame Time: 0.009975
-0.101309 -0.0600628 0.0346625 -2.52928e-012 -2.43664e-008 -5.1096e-006 0 -0 0 0 -0 0 0 -0 0 -0.711669 0.29057 3.88256e-019 -4.04558 -15.7404 -17.8402 -32.4838 -36.3951 -32.1165 17.4995 25.6788 -6.15288 -55.4074 -59.6752 107.523 -10.0554 -7.69172 -6.7966 -10.765 -21.0427 -16.9203 -0.668317 0.719105 -7.78286 -2.27352 -3.32722 1.80412 -10.6733 -6.07469 8.2015 4.52759 -44.9119 38.5156 4.10513 15.582 -17.4536 32.2684 36.1173 32.951 16.54 -25.6947 5.46052 62.023 59.9528 98.3788 9.85361 7.61885 6.86856 8.04106 19.5744 15.8614 0.506266 -0.935755 7.29198 2.34277 3.30717 -1.95745 10.1317 6.04476 -7.74582 -4.65408 45.1315 -38.6656 -0.284582 -0.660682 0.00328152 0.0240216 0.260542 0.660696 0 -0.273176 -0.660683 0.00315 8.58043e-007 0.273157 0.660696 0 
-0.101305 -0.0600629 0.0346589 -2.38857e-013 -2.43573e-008 -5.10961e-006 0 -0 0 0 -0 0 0 -0 0 -0.711669 0.290548 -3.3835e-014 -4.07349 -15.7711 -17.6023 -32.5561 -36.195 -32.2333 17.3364 25.6572 -6.09953 -55.3245 -59.594 107.571 -10.0178 -7.77504 -6.80685 -10.6568 -21.0676 -16.9951 -0.636495 0.726947 -7.76453 -2.33165 -3.30321 1.8096 -10.6728 -6.03854 8.22526 4.5279 -44.9102 38.5749 4.10513 15.582 -17.4536 32.2684 36.1173 32.951 16.54 -25.6947 5.46052 62.023 59.9528 98.3788 9.85361 7.61885 6.86856 8.04106 19.5744 15.8614 0.506266 -0.935755 7.29198 2.34277 3.30717 -1.95745 10.1317 6.04476 -7.74582 -4.65408 45.1315 -38.6656 -0.284806 -0.660932 0.00328535 0.0240216 0.260766 0.660946 0 -0.273401 -0.660933 0.00315378 0 0.273382 0.660946 0 
-0.101297 -0.060063 0.0346498 3.24844e-013 -2.4407e-008 -5.10961e-006 0 -0 0 0 -0 0 0 -0 0 -0.711669 0.29052 -4.02272e-015 -4.13319 -15.8134 -17.0829 -32.7407 -35.7785 -32.4608 16.9747 25.6275 -5.98116 -55.2412 -59.4561 107.6 -9.99343 -7.77966 -6.83274 -10.5288 -21.0574 -17.0375 -0.571674 0.73376 -7.7931 -2.33124 -3.26754 1.81391 -10.6485 -6.01576 8.26743 4.52179 -44.8004 38.6319 4.10513 15.582 -17.4536 32.2684 36.1173 32.951 16.54 -25.6947 5.46052 62.023 59.9528 98.3788 9.85361 7.61885 6.86856 8.04106 19.5744 15.8614 0.506266 -0.935755 7.29198 2.34277 3.30717 -1.95745 10.1317 6.04476 -7.74582 -4.65408 45.1315 -38.6656 -0.285385 -0.661419 0.00329444 0.0240216 0.261344 0.661433 0 -0.273979 -0.66142 0.00316278 1.18931e-006 0.27396 0.661433 0 
-0.101296 -0.0600631 0.0346467 -9.50337e-013 -2.44608e-008 -5.10961e-006 0 -0 0 0 -0 0 0 -0 0 -0.711669 0.29053 -1.0474e-014 -4.15663 -15.8321 -16.8409 -32.8385 -35.5794 -32.5763 16.8066 25.6201 -5.90085 -55.2195 -59.379 107.558 -10.0256 -7.7014 -6.85733 -10.4886 -21.0086 -17.0497 -0.549059 0.735704 -7.84347 -2.29896 -3.27463 1.8139 -10.619 -5.98125 8.28033 4.51229 -44.6973 38.673 4.10513 15.582 -17.4536 32.2684 36.1173 32.951 16.54 -25.6947 5.46052 62.023 59.9528 98.3788 9.85361 7.61885 6.86856 8.04106 19.5744 15.8614 0.506266 -0.935755 7.29198 2.34277 3.30717 -1.95745 10.1317 6.04476 -7.74582 -4.65408 45.1315 -38.6656 -0.285575 -0.66151 0.00329709 0.0240216 0.261535 0.661523 0 -0.27417 -0.66151 0.00316541 2.41484e-006 0.274149 0.661523 0 
-0.101299 -0.060063 0.0346498 -3.5023e-013 -2.44397e-008 -5.1096e-006 0 -0 0 0 -0 0 0 -0 0 -0.711669 0.290548 1.91682e-015 -4.14571 -15.8296 -16.8687 -32.8318 -35.6017 -32.5787 16.8093 25.6065 -5.89468 -55.1785 -59.3977 107.548 -10.0345 -7.68954 -6.85091 -10.5145 -20.9578 -17.0008 -0.573957 0.735515 -7.85849 -2.28263 -3.31845 1.81515 -10.6202 -5.95127 8.24637 4.51513 -44.8143 38.7215 4.10513 15.582 -17.4536 32.2684 36.1173 32.951 16.54 -25.6947 5.46052 62.023 59.9528 98.3788 9.85361 7.61885 6.86856 8.04106 19.5744 15.8614 0.506266 -0.935755 7.29198 2.34277 3.30717 -1.95745 10.1317 6.04476 -7.74582 -4.65408 45.1315 -38.6656 -0.285381 -0.661342 0.00329401 0.0240216 0.26134 0.661355 0 -0.273975 -0.661342 0.00316236 1.70755e-006 0.273955 0.661355 0 
